<svg xmlns="http://www.w3.org/2000/svg" viewBox="0 0 32 32"><defs><style>.cls-1{fill:#fff;}.cls-2{fill:#333;}</style></defs><g id="Layer_2" data-name="Layer 2"><g id="Layer_1-2" data-name="Layer 1"><rect class="cls-1" x="5.61" y="5.61" width="21.21" height="20.1"/><path class="cls-2" d="M19.06,16A3.06,3.06,0,1,1,16,12.94,3.06,3.06,0,0,1,19.06,16Z"/><path class="cls-2" d="M23.16,10.58a3.1,3.1,0,0,0-1.74-1.74,5,5,0,0,0-1.71-.32c-1,0-1.26,0-3.71,0s-2.74,0-3.71,0a5,5,0,0,0-1.71.32,3.1,3.1,0,0,0-1.74,1.74,5,5,0,0,0-.32,1.71c0,1,0,1.26,0,3.71s0,2.74,0,3.71a5,5,0,0,0,.32,1.71,3,3,0,0,0,.68,1.06,2.84,2.84,0,0,0,1.06.68,5,5,0,0,0,1.71.32c1,0,1.26.05,3.71.05s2.74,0,3.71-.05a5,5,0,0,0,1.71-.32,3,3,0,0,0,1.74-1.74,5,5,0,0,0,.32-1.71c0-1,.05-1.26.05-3.71s0-2.74-.05-3.71A5,5,0,0,0,23.16,10.58ZM16,20.72A4.72,4.72,0,1,1,20.72,16,4.72,4.72,0,0,1,16,20.72Zm4.9-8.52A1.11,1.11,0,1,1,22,11.1,1.11,1.11,0,0,1,20.9,12.2Z"/><path class="cls-2" d="M16,0A16,16,0,1,0,32,16,16,16,0,0,0,16,0Zm9.13,19.79A6.85,6.85,0,0,1,24.71,22,4.75,4.75,0,0,1,22,24.71a6.85,6.85,0,0,1-2.23.42c-1,.05-1.29.06-3.79.06s-2.81,0-3.79-.06A6.85,6.85,0,0,1,10,24.71a4.78,4.78,0,0,1-1.63-1.06A4.62,4.62,0,0,1,7.3,22a6.57,6.57,0,0,1-.43-2.23c0-1-.06-1.29-.06-3.79s0-2.81.06-3.79A6.85,6.85,0,0,1,7.29,10,4.69,4.69,0,0,1,10,7.29a6.85,6.85,0,0,1,2.23-.42c1,0,1.29-.06,3.79-.06s2.81,0,3.79.06A6.85,6.85,0,0,1,22,7.29,4.69,4.69,0,0,1,24.71,10a6.85,6.85,0,0,1,.42,2.23c.05,1,.06,1.29.06,3.79S25.18,18.81,25.13,19.79Z"/></g></g></svg>